<svg width="26" height="37" viewBox="0 0 26 37" fill="none" xmlns="http://www.w3.org/2000/svg">
<path d="M16 3C16 4.65685 14.6569 3 13 3C11.3431 3 10 4.65685 10 3C10 1.34315 11.3431 0 13 0C14.6569 0 16 1.34315 16 3Z" fill="#EC4134"/>
<rect y="2" width="26" height="2.5" rx="1.25" fill="#EC4134"/>
<rect x="12" y="13" width="2" height="19" fill="#EC4134"/>
<rect x="7" y="14" width="1.5" height="17" fill="#EC4134"/>
<rect x="17" y="14" width="1.5" height="17" fill="#EC4134"/>
<rect x="1" y="7" width="24" height="3" fill="#EC4134"/>
<path d="M1 7H4V37V37C2.34315 37 1 35.6569 1 34V7Z" fill="#EC4134"/>
<path d="M22 7H25V34C25 35.6569 23.6569 37 22 37V37V7Z" fill="#EC4134"/>
<path d="M4 34H22V37H4V34Z" fill="#EC4134"/>
</svg>
