<svg width="176" height="75" viewBox="0 0 176 75" fill="none" xmlns="http://www.w3.org/2000/svg">
<path d="M15.2488 30.5746C15.5582 29.5175 16.1899 28.989 17.1439 28.989C17.3501 28.989 17.4919 29.0018 17.5693 29.0276C18.549 28.5893 19.5674 28.2413 20.6245 27.9834C21.6816 27.6998 22.7645 27.558 23.8732 27.558C24.6208 27.558 25.3428 27.6354 26.0389 27.7901C26.735 27.919 27.4183 28.1768 28.0886 28.5635V28.5249C28.8105 28.8858 29.4551 29.3499 30.0223 29.9171C30.5895 30.4843 31.0794 31.116 31.4919 31.8122C31.9045 32.5083 32.2139 33.2431 32.4201 34.0166C32.6522 34.7901 32.7682 35.5635 32.7682 36.337C32.7682 37.8582 32.3557 39.2505 31.5306 40.5138C30.6798 41.8287 29.6227 42.8858 28.3593 43.6851C27.1218 44.4586 25.665 44.9098 23.9892 45.0387C23.6798 45.0645 23.3575 45.0902 23.0223 45.116C22.7129 45.116 22.4164 45.116 22.1328 45.116C21.5914 45.116 21.0628 45.1031 20.5472 45.0773C20.0315 45.0258 19.5417 44.9742 19.0776 44.9227C19.0776 45.9024 19.0776 46.9724 19.0776 48.1326C19.0776 49.2928 19.0905 50.337 19.1162 51.2652C19.0905 51.9355 18.8713 52.4254 18.4588 52.7348C18.072 53.0442 17.6466 53.1989 17.1825 53.1989C16.7442 53.1989 16.3317 53.0442 15.945 52.7348C15.584 52.4512 15.3649 52.0129 15.2875 51.4199V44.0718L15.2102 44.0331C14.3593 43.5433 13.9339 42.9632 13.9339 42.2928C13.9339 41.9834 14.0371 41.6869 14.2433 41.4033C14.4496 41.1197 14.7848 40.9134 15.2488 40.7845V30.5746ZM26.2709 31.5801C25.5232 31.1676 24.7111 30.9613 23.8345 30.9613C23.0094 30.9613 22.1844 31.0902 21.3593 31.3481C20.5601 31.5801 19.7995 31.8766 19.0776 32.2376V41.4807C20.0573 41.6869 21.0242 41.7901 21.9781 41.7901C22.9836 41.7901 23.9763 41.6483 24.956 41.3646C25.9615 41.0552 26.7866 40.5654 27.4312 39.895C27.9468 39.3794 28.3078 38.7993 28.514 38.1547C28.7461 37.5101 28.8621 36.8527 28.8621 36.1823C28.8621 35.2026 28.6429 34.3131 28.2046 33.5138C27.7921 32.6888 27.1476 32.0442 26.2709 31.5801ZM50.871 49.1381C51.2062 49.6022 51.3738 50.0276 51.3738 50.4144C51.3738 50.8785 51.1933 51.2652 50.8323 51.5746C50.4971 51.8582 50.0846 52 49.5947 52C49.0017 52 48.4861 51.7808 48.0478 51.3425C47.6353 50.9042 47.2872 50.3886 47.0036 49.7956C46.359 50.3886 45.5984 50.9042 44.7218 51.3425C43.8452 51.7808 42.9557 52 42.0533 52C41.3572 52 40.661 51.884 39.9649 51.6519C39.2946 51.3941 38.6629 51.0589 38.0699 50.6464C37.5027 50.2081 36.9999 49.7053 36.5616 49.1381C36.1491 48.5709 35.8268 47.965 35.5947 47.3204C35.3885 46.6501 35.2467 45.9153 35.1693 45.116C35.1178 44.3168 35.092 43.4788 35.092 42.6022C35.092 42.035 35.092 41.4807 35.092 40.9392C35.092 40.3978 35.1049 39.8692 35.1307 39.3536C35.1564 38.9153 35.1693 38.4899 35.1693 38.0773C35.1951 37.6648 35.208 37.2781 35.208 36.9171C35.3369 36.3499 35.569 35.9374 35.9041 35.6796C36.2651 35.4217 36.6776 35.2928 37.1417 35.2928C37.5284 35.2928 37.9023 35.4217 38.2633 35.6796C38.65 35.9116 38.9078 36.2855 39.0367 36.8011C39.0367 37.3941 39.0367 37.9742 39.0367 38.5414C39.0367 39.1087 39.0238 39.6759 38.9981 40.2431C38.9723 40.8361 38.9465 41.4162 38.9207 41.9834C38.9207 42.5506 38.9207 43.1565 38.9207 43.8011C38.9207 45.1934 39.1914 46.3278 39.7329 47.2044C40.2743 48.081 41.0091 48.5193 41.9373 48.5193C42.685 48.5193 43.3811 48.2357 44.0257 47.6685C44.6703 47.0755 45.289 46.4052 45.882 45.6575C45.7273 44.4199 45.65 43.1565 45.65 41.8674C45.65 41.1197 45.65 40.3591 45.65 39.5856C45.6758 38.8122 45.7531 38.116 45.882 37.4972C46.0367 36.8527 46.2559 36.337 46.5395 35.9503C46.8489 35.5378 47.3001 35.3315 47.8931 35.3315C48.3572 35.3315 48.7697 35.4862 49.1307 35.7956C49.5174 36.105 49.7108 36.5691 49.7108 37.1878C49.7108 37.7293 49.6721 38.3481 49.5947 39.0442C49.5432 39.4825 49.5045 39.9466 49.4787 40.4365C49.4529 40.9263 49.44 41.4291 49.44 41.9448C49.44 42.6409 49.4529 43.3499 49.4787 44.0718C49.5303 44.768 49.6076 45.4383 49.7108 46.0829C49.8397 46.7274 49.9944 47.3204 50.1749 47.8619C50.3553 48.3775 50.5874 48.8029 50.871 49.1381ZM60.3125 52.232C59.7195 52.1805 59.1651 52.1031 58.6495 52C58.1596 51.8969 57.6569 51.7035 57.1412 51.4199C56.9349 51.5488 56.7287 51.639 56.5224 51.6906C56.3419 51.7164 56.1486 51.7293 55.9423 51.7293C55.4267 51.7293 55.0012 51.5746 54.6661 51.2652C54.3309 50.9558 54.1633 50.582 54.1633 50.1436C54.1633 49.8343 54.3051 49.4346 54.5887 48.9448L54.6274 29.105C54.7563 28.5893 54.9884 28.2026 55.3235 27.9448C55.6587 27.6611 56.0454 27.5193 56.4837 27.5193C56.9221 27.5193 57.3088 27.6483 57.644 27.9061C58.0049 28.1381 58.2628 28.4991 58.4174 28.989V37.4972C58.8815 37.1621 59.3198 36.8913 59.7324 36.6851C60.2738 36.3757 60.8281 36.1436 61.3953 35.989C61.9626 35.8343 62.5814 35.7182 63.2517 35.6409C63.9736 35.5893 64.644 35.6796 65.2628 35.9116C65.9073 36.1179 66.5003 36.3886 67.0418 36.7238C67.5832 37.0332 68.0344 37.4457 68.3953 37.9613C68.7563 38.4512 69.0399 38.9926 69.2462 39.5856C69.4782 40.1786 69.6329 40.7974 69.7103 41.442C69.8134 42.0866 69.865 42.7311 69.865 43.3757C69.865 44.3554 69.7747 45.2707 69.5942 46.1215C69.4395 46.9466 69.143 47.733 68.7047 48.4807C68.318 49.1768 67.8023 49.7698 67.1578 50.2597C66.5132 50.7495 65.8042 51.1492 65.0307 51.4586C64.2572 51.768 63.458 51.9871 62.6329 52.116C61.8079 52.2449 61.0344 52.2836 60.3125 52.232ZM58.4174 42.7956V48.1326C58.9331 48.4162 59.423 48.6096 59.8871 48.7127C60.3511 48.8158 60.7637 48.8674 61.1246 48.8674C61.9239 48.8674 62.7232 48.6998 63.5224 48.3646C64.3217 48.0295 64.9663 47.4494 65.4561 46.6243C65.7655 46.1087 65.9589 45.5801 66.0362 45.0387C66.1136 44.4972 66.1523 43.9687 66.1523 43.453C66.1523 42.9632 66.1136 42.4604 66.0362 41.9448C65.9589 41.4291 65.8171 40.965 65.6108 40.5525C65.4303 40.1142 65.1725 39.7661 64.8373 39.5083C64.5279 39.2247 64.1283 39.07 63.6384 39.0442C63.0454 39.0184 62.5169 39.1087 62.0528 39.3149C61.5887 39.4954 61.1504 39.7661 60.7379 40.1271C60.3511 40.4622 59.9644 40.8619 59.5777 41.326C59.1909 41.7901 58.8042 42.2799 58.4174 42.7956ZM78.2345 49.9116C78.9048 50.4015 79.24 50.9171 79.24 51.4586C79.24 51.768 79.1626 52.0516 79.0079 52.3094C78.8532 52.5672 78.647 52.7735 78.3891 52.9282C78.1313 53.0829 77.8219 53.1602 77.461 53.1602C77.1258 53.186 76.7648 53.0958 76.3781 52.8895L74.7151 51.8066C74.4831 51.6004 74.3284 51.407 74.251 51.2265C74.1737 51.046 74.1092 50.8011 74.0577 50.4917V29.2983C74.1866 28.7827 74.4186 28.3959 74.7538 28.1381C75.089 27.8545 75.4757 27.7127 75.914 27.7127C76.3523 27.7127 76.7391 27.8416 77.0742 28.0994C77.4094 28.3315 77.6672 28.6925 77.8477 29.1823V49.6796C77.8993 49.7311 77.9637 49.7827 78.0411 49.8343C78.1184 49.86 78.1829 49.8858 78.2345 49.9116ZM86.6436 50.6464C86.6178 51.291 86.4116 51.768 86.0248 52.0773C85.6381 52.3867 85.2127 52.5414 84.7486 52.5414C84.2845 52.5414 83.872 52.3996 83.511 52.116C83.15 51.8324 82.9309 51.3941 82.8535 50.8011L82.7375 36.105C82.8664 35.5635 83.0985 35.1639 83.4337 34.9061C83.7688 34.6225 84.1685 34.4807 84.6326 34.4807C85.0451 34.4807 85.4318 34.6096 85.7928 34.8674C86.1537 35.0994 86.3987 35.4733 86.5276 35.989L86.6436 50.6464ZM82.4668 29.9558C82.4668 29.3628 82.6731 28.86 83.0856 28.4475C83.5239 28.0092 84.0395 27.7901 84.6326 27.7901C85.2513 27.7901 85.767 28.0092 86.1795 28.4475C86.6178 28.86 86.837 29.3628 86.837 29.9558C86.837 30.5488 86.6178 31.0516 86.1795 31.4641C85.767 31.8766 85.2513 32.0829 84.6326 32.0829C84.0395 32.0829 83.5239 31.8766 83.0856 31.4641C82.6731 31.0516 82.4668 30.5488 82.4668 29.9558ZM100.374 47.6298C100.581 47.4236 100.813 47.2818 101.071 47.2044C101.328 47.1271 101.586 47.0884 101.844 47.0884C102.36 47.0884 102.785 47.256 103.12 47.5912C103.455 47.9006 103.623 48.2744 103.623 48.7127C103.623 49.151 103.43 49.6022 103.043 50.0663C102.321 50.8656 101.483 51.4586 100.529 51.8453C99.5751 52.232 98.5825 52.4254 97.5512 52.4254C96.8808 52.4254 96.2105 52.3352 95.5401 52.1547C94.8956 51.9742 94.2768 51.7035 93.6838 51.3425C93.1166 50.9558 92.6009 50.4917 92.1368 49.9503C91.6727 49.4088 91.3118 48.7772 91.054 48.0552V48.0939C90.4094 46.6243 90.1516 45.1289 90.2805 43.6077C90.3578 42.5249 90.5899 41.442 90.9766 40.3591C91.3891 39.2505 91.9435 38.2449 92.6396 37.3425C93.3357 36.4401 94.1608 35.7053 95.1147 35.1381C96.0945 34.5709 97.1644 34.2873 98.3247 34.2873C98.6856 34.2873 99.0337 34.3131 99.3689 34.3646C99.704 34.3904 100.052 34.4678 100.413 34.5967C101.135 34.8545 101.78 35.151 102.347 35.4862C102.94 35.8214 103.533 36.2855 104.126 36.8785C104.384 37.3168 104.513 37.6906 104.513 38C104.513 38.3352 104.435 38.6317 104.28 38.8895C104.126 39.1473 103.907 39.3407 103.623 39.4696C103.365 39.5985 103.043 39.663 102.656 39.663C102.295 39.6372 101.908 39.5212 101.496 39.3149C100.955 38.7477 100.426 38.3481 99.9103 38.116C99.4204 37.8582 98.9435 37.7293 98.4794 37.7293C97.8606 37.7293 97.2805 37.9227 96.739 38.3094C96.1976 38.6704 95.7335 39.1602 95.3468 39.779C94.96 40.3978 94.6506 41.0939 94.4186 41.8674C94.1865 42.6409 94.0705 43.4273 94.0705 44.2265C94.0705 44.6648 94.0963 45.1031 94.1479 45.5414C94.2252 45.9797 94.3541 46.3923 94.5346 46.779C94.8698 47.5525 95.3081 48.1197 95.8495 48.4807C96.391 48.8416 96.9582 49.0221 97.5512 49.0221C97.9895 49.0221 98.4536 48.9061 98.9435 48.674C99.4333 48.442 99.8974 48.0939 100.336 47.6298H100.374Z" fill="black"/>
<circle cx="147.241" cy="37.1198" r="25" transform="rotate(179.118 147.241 37.1198)" fill="black"/>
<rect x="155.671" y="64.9933" width="16" height="10" rx="5" transform="rotate(179.118 155.671 64.9933)" fill="black"/>
<rect x="175.39" y="44.1867" width="16" height="10" rx="5" transform="rotate(119.118 175.39 44.1867)" fill="black"/>
<rect x="127.933" y="39.7733" width="16" height="10" rx="5" transform="rotate(59.1184 127.933 39.7733)" fill="black"/>
<rect x="167.169" y="15.7619" width="16" height="10" rx="5" transform="rotate(59.1184 167.169 15.7619)" fill="black"/>
<rect x="154.964" y="18.9988" width="16" height="10" rx="5" transform="rotate(179.118 154.964 18.9988)" fill="black"/>
<rect x="135.522" y="21.2392" width="16" height="10" rx="5" transform="rotate(119.118 135.522 21.2392)" fill="black"/>
<path d="M138.69 43.34C138.675 43.6199 138.602 43.8483 138.469 44.0251C138.337 44.2019 138.175 44.305 137.983 44.3345C137.791 44.3787 137.6 44.3492 137.408 44.2461C137.217 44.1429 137.055 43.9661 136.922 43.7157C136.834 43.0232 136.709 42.3455 136.547 41.6825C136.384 41.0048 136.193 40.3345 135.972 39.6715L130.116 39.7157C130.086 39.7157 130.049 39.7157 130.005 39.7157C129.976 39.701 129.946 39.6936 129.917 39.6936C129.548 40.9459 129.217 42.2424 128.922 43.5831C128.804 43.8925 128.635 44.0987 128.414 44.2019C128.193 44.305 127.979 44.3271 127.773 44.2682C127.582 44.2092 127.419 44.0766 127.287 43.8704C127.169 43.6641 127.14 43.3989 127.198 43.0748C127.685 40.9385 128.267 38.8538 128.944 36.8207C129.637 34.7728 130.499 32.7765 131.53 30.8317C131.618 30.5518 131.825 30.375 132.149 30.3013C132.311 30.2424 132.466 30.235 132.613 30.2792C132.76 30.3087 132.885 30.375 132.989 30.4781C133.003 30.4781 133.011 30.4855 133.011 30.5002C133.011 30.5002 133.018 30.5002 133.033 30.5002C133.799 31.2369 134.44 32.0693 134.955 32.9975C135.471 33.9256 135.943 34.8685 136.37 35.8262C136.532 36.165 136.679 36.5039 136.812 36.8428C136.959 37.1816 137.099 37.5205 137.232 37.8593L138.403 37.8372C138.683 37.9256 138.889 38.0582 139.022 38.235C139.154 38.4118 139.213 38.596 139.198 38.7875C139.198 38.9643 139.125 39.1411 138.977 39.3179C138.83 39.48 138.617 39.5905 138.337 39.6494H137.873C138.064 40.2534 138.226 40.8649 138.359 41.4836C138.506 42.0877 138.617 42.7065 138.69 43.34ZM132.591 32.7102C132.178 33.5499 131.795 34.4045 131.442 35.2737C131.103 36.1429 130.786 37.0196 130.491 37.9035L135.309 37.8593C135.117 37.4173 134.919 36.9827 134.712 36.5555C134.521 36.1282 134.322 35.701 134.116 35.2737C133.88 34.8464 133.644 34.4118 133.408 33.9698C133.173 33.5278 132.9 33.1079 132.591 32.7102ZM141.404 31.782C141.478 31.4873 141.596 31.2737 141.758 31.1411C141.92 30.9938 142.104 30.9201 142.31 30.9201C142.428 30.9201 142.517 30.9348 142.576 30.9643C143.135 30.7138 143.725 30.5076 144.344 30.3455C144.962 30.1835 145.581 30.1024 146.2 30.1024C146.612 30.1024 147.01 30.1466 147.393 30.235C147.791 30.3087 148.174 30.4486 148.542 30.6549C148.94 30.8612 149.301 31.1264 149.625 31.4505C149.949 31.7746 150.222 32.1356 150.443 32.5334C150.664 32.9164 150.833 33.3289 150.951 33.7709C151.084 34.2129 151.15 34.6549 151.15 35.0969C151.15 35.9514 150.922 36.7396 150.465 37.4615C149.979 38.2129 149.382 38.817 148.675 39.2737C147.968 39.7157 147.158 39.9735 146.244 40.0472C146.067 40.0619 145.883 40.0766 145.692 40.0914C145.515 40.0914 145.345 40.0914 145.183 40.0914C144.844 40.0914 144.513 40.0766 144.189 40.0472C143.865 40.0177 143.541 39.9809 143.216 39.9367C143.216 40.4965 143.216 41.13 143.216 41.8372C143.216 42.5444 143.224 43.1779 143.239 43.7378C143.224 44.0766 143.121 44.3271 142.929 44.4892C142.752 44.666 142.554 44.7544 142.333 44.7544C142.126 44.7544 141.935 44.6733 141.758 44.5113C141.581 44.3639 141.471 44.1282 141.426 43.8041V39.4947C141.382 39.4947 141.331 39.48 141.272 39.4505C141.051 39.3326 140.889 39.1927 140.786 39.0306C140.682 38.8685 140.631 38.7065 140.631 38.5444C140.631 38.3529 140.697 38.1835 140.83 38.0361C140.962 37.8741 141.154 37.7636 141.404 37.7046V31.782ZM147.681 32.2461C147.224 32.0103 146.723 31.8925 146.178 31.8925C145.662 31.8925 145.147 31.9735 144.631 32.1356C144.115 32.2829 143.644 32.4597 143.216 32.666V38.1024C143.526 38.1761 143.835 38.235 144.145 38.2792C144.454 38.3087 144.771 38.3234 145.095 38.3234C145.404 38.3234 145.714 38.3013 146.023 38.2571C146.45 38.1835 146.87 38.0803 147.283 37.9477C147.71 37.8004 148.086 37.5573 148.41 37.2184C148.705 36.8943 148.926 36.5407 149.073 36.1577C149.22 35.7746 149.294 35.3916 149.294 35.0085C149.294 34.4486 149.154 33.9256 148.874 33.4394C148.609 32.9385 148.211 32.5407 147.681 32.2461ZM158.202 42.1908C158.526 42.1761 158.776 42.2498 158.953 42.4118C159.145 42.5739 159.255 42.758 159.285 42.9643C159.314 43.1706 159.255 43.3768 159.108 43.5831C158.975 43.7746 158.747 43.9072 158.423 43.9809C157.657 44.0103 156.891 44.0251 156.124 44.0251C155.373 44.0103 154.614 44.003 153.848 44.003C153.524 43.9588 153.281 43.8483 153.119 43.6715C152.972 43.48 152.898 43.2811 152.898 43.0748C152.913 42.8538 153.001 42.6549 153.163 42.4781C153.34 42.3013 153.59 42.2056 153.915 42.1908C154.136 42.1908 154.349 42.1908 154.555 42.1908C154.776 42.1908 154.997 42.1982 155.218 42.2129V32.5555H153.826C153.502 32.5113 153.259 32.4008 153.097 32.224C152.95 32.0324 152.876 31.8335 152.876 31.6273C152.891 31.4063 152.979 31.2074 153.141 31.0306C153.318 30.8538 153.568 30.758 153.892 30.7433H158.445C158.725 30.8317 158.931 30.9643 159.064 31.1411C159.196 31.3179 159.255 31.5021 159.241 31.6936C159.241 31.8704 159.167 32.0472 159.02 32.224C158.872 32.386 158.659 32.4965 158.379 32.5555H157.031V42.235C157.222 42.235 157.414 42.235 157.605 42.235C157.797 42.2203 157.996 42.2056 158.202 42.1908ZM160.995 42.456C160.863 42.1908 160.818 41.9551 160.863 41.7488C160.907 41.5278 160.995 41.3584 161.128 41.2405C161.275 41.1079 161.459 41.0417 161.68 41.0417C161.901 41.0417 162.13 41.1227 162.365 41.2847C162.704 41.712 163.102 42.0435 163.559 42.2792C164.03 42.5149 164.531 42.6549 165.062 42.6991L165.526 42.5665C165.644 42.4781 165.725 42.4192 165.769 42.3897C165.813 42.3603 165.842 42.3382 165.857 42.3234C165.887 42.294 165.916 42.2571 165.946 42.2129C165.99 42.1687 166.056 42.0877 166.144 41.9698C166.174 41.9109 166.196 41.852 166.211 41.793C166.225 41.7341 166.248 41.6678 166.277 41.5941C166.277 41.5205 166.277 41.4542 166.277 41.3952C166.292 41.3363 166.299 41.27 166.299 41.1963L166.167 40.7986C166.122 40.7396 166.071 40.6807 166.012 40.6218C165.968 40.5628 165.923 40.5039 165.879 40.445C165.511 40.2092 165.143 40.0398 164.774 39.9367C164.406 39.8335 164.045 39.7304 163.691 39.6273C163.353 39.5094 163.014 39.3621 162.675 39.1853C162.351 39.0085 162.041 38.7212 161.747 38.3234C161.467 37.9698 161.312 37.5647 161.283 37.1079C161.268 36.6365 161.341 36.1871 161.504 35.7599C161.68 35.3326 161.931 34.9569 162.255 34.6328C162.594 34.294 162.977 34.0803 163.404 33.9919C164.023 33.8446 164.649 33.8299 165.283 33.9477C165.931 34.0656 166.535 34.2719 167.095 34.5665C167.36 34.758 167.515 34.979 167.559 35.2295C167.603 35.4652 167.566 35.6715 167.448 35.8483C167.345 36.0251 167.176 36.1503 166.94 36.224C166.719 36.2976 166.461 36.2608 166.167 36.1135C165.813 35.9219 165.437 35.7967 165.039 35.7378C164.656 35.6789 164.266 35.6789 163.868 35.7378C163.824 35.7672 163.772 35.7893 163.713 35.8041C163.669 35.8188 163.625 35.8409 163.581 35.8704C163.419 36.0472 163.301 36.224 163.227 36.4008C163.154 36.5628 163.124 36.7691 163.139 37.0196C163.154 37.0785 163.19 37.1669 163.249 37.2847C163.294 37.3437 163.338 37.3952 163.382 37.4394C163.426 37.4836 163.47 37.5352 163.515 37.5941C163.868 37.7857 164.251 37.9404 164.664 38.0582C165.091 38.1614 165.504 38.2866 165.901 38.4339C166.299 38.5665 166.667 38.7507 167.006 38.9864C167.345 39.2074 167.61 39.5389 167.802 39.9809C168.155 40.8207 168.207 41.5941 167.957 42.3013C167.721 43.0085 167.235 43.6052 166.498 44.0914C166.306 44.2092 166.093 44.305 165.857 44.3787C165.621 44.4671 165.4 44.5113 165.194 44.5113C164.399 44.5113 163.618 44.3345 162.852 43.9809C162.085 43.6126 161.467 43.1043 160.995 42.456Z" fill="white"/>
</svg>
