<svg width="16" height="16" viewBox="0 0 16 16" fill="none" xmlns="http://www.w3.org/2000/svg">
<path fill-rule="evenodd" clip-rule="evenodd" d="M15 8C15 6.14348 14.2625 4.36301 12.9497 3.05025C11.637 1.7375 9.85652 1 8 1C6.14348 1 4.36301 1.7375 3.05025 3.05025C1.7375 4.36301 1 6.14348 1 8C1 9.85652 1.7375 11.637 3.05025 12.9497C4.36301 14.2625 6.14348 15 8 15C9.85652 15 11.637 14.2625 12.9497 12.9497C14.2625 11.637 15 9.85652 15 8ZM0 8C0 5.87827 0.842854 3.84344 2.34315 2.34315C3.84344 0.842854 5.87827 0 8 0C10.1217 0 12.1566 0.842854 13.6569 2.34315C15.1571 3.84344 16 5.87827 16 8C16 10.1217 15.1571 12.1566 13.6569 13.6569C12.1566 15.1571 10.1217 16 8 16C5.87827 16 3.84344 15.1571 2.34315 13.6569C0.842854 12.1566 0 10.1217 0 8ZM5.904 10.854C5.81011 10.9478 5.68283 11.0004 5.55015 11.0003C5.41746 11.0002 5.29025 10.9474 5.1965 10.8535C5.10275 10.7596 5.05013 10.6323 5.05022 10.4996C5.05032 10.367 5.10311 10.2398 5.197 10.146L9.293 6.05H6.525C6.39239 6.05 6.26521 5.99732 6.17145 5.90355C6.07768 5.80978 6.025 5.68261 6.025 5.55C6.025 5.41739 6.07768 5.29021 6.17145 5.19645C6.26521 5.10268 6.39239 5.05 6.525 5.05H10.5C10.6326 5.05 10.7598 5.10268 10.8536 5.19645C10.9473 5.29021 11 5.41739 11 5.55V9.525C11 9.65761 10.9473 9.78479 10.8536 9.87855C10.7598 9.97232 10.6326 10.025 10.5 10.025C10.3674 10.025 10.2402 9.97232 10.1464 9.87855C10.0527 9.78479 10 9.65761 10 9.525V6.757L5.904 10.854Z" fill="white"/>
</svg>
